<svg xmlns="http://www.w3.org/2000/svg" viewBox="0 0 24 24" width="24" height="24">
  <!-- Flow diagram icon for Activity Bar -->
  <defs>
    <linearGradient id="grad1" x1="0%" y1="0%" x2="100%" y2="100%">
      <stop offset="0%" style="stop-color:#4FC3F7;stop-opacity:1" />
      <stop offset="100%" style="stop-color:#2196F3;stop-opacity:1" />
    </linearGradient>
  </defs>
  
  <!-- Top node (AGL) - narrower width -->
  <rect x="7" y="1" width="10" height="4" rx="1" fill="url(#grad1)" stroke="#1565C0" stroke-width="0.5"/>
  <text x="12" y="4.2" text-anchor="middle" fill="#FFEB3B" font-family="Arial, sans-serif" font-size="4" font-weight="bold">AGL</text>
  
  <!-- Single line down then branches - horizontal line moved down to y=10 -->
  <line x1="12" y1="5" x2="12" y2="10" stroke="#90CAF9" stroke-width="1"/>
  
  <!-- Left branch with arrow -->
  <path d="M12 10 L5 10 Q4 10 4 11 L4 14" stroke="#90CAF9" stroke-width="1" fill="none" stroke-linecap="round"/>
  <polygon points="4,15 3,13 5,13" fill="#90CAF9"/>
  
  <!-- Center branch with arrow -->
  <line x1="12" y1="10" x2="12" y2="14" stroke="#90CAF9" stroke-width="1"/>
  <polygon points="12,15 11,13 13,13" fill="#90CAF9"/>
  
  <!-- Right branch with arrow -->
  <path d="M12 10 L19 10 Q20 10 20 11 L20 14" stroke="#90CAF9" stroke-width="1" fill="none" stroke-linecap="round"/>
  <polygon points="20,15 19,13 21,13" fill="#90CAF9"/>
  
  <!-- Bottom nodes (A V S) - smaller, within bounds -->
  <circle cx="4" cy="19" r="3" fill="#4CAF50" stroke="#2E7D32" stroke-width="0.5"/>
  <text x="4" y="20.8" text-anchor="middle" fill="#fff" font-family="Arial, sans-serif" font-size="4" font-weight="bold">A</text>
  
  <circle cx="12" cy="19" r="3" fill="#FF9800" stroke="#E65100" stroke-width="0.5"/>
  <text x="12" y="20.8" text-anchor="middle" fill="#fff" font-family="Arial, sans-serif" font-size="4" font-weight="bold">V</text>
  
  <circle cx="20" cy="19" r="3" fill="#9C27B0" stroke="#6A1B9A" stroke-width="0.5"/>
  <text x="20" y="20.8" text-anchor="middle" fill="#fff" font-family="Arial, sans-serif" font-size="4" font-weight="bold">S</text>
</svg>
