<svg xmlns="http://www.w3.org/2000/svg" viewBox="0 0 128 128" width="128" height="128">
  <!-- Background with rounded corners -->
  <defs>
    <linearGradient id="bgGrad" x1="0%" y1="0%" x2="100%" y2="100%">
      <stop offset="0%" style="stop-color:#1E3A5F;stop-opacity:1" />
      <stop offset="100%" style="stop-color:#0D2137;stop-opacity:1" />
    </linearGradient>
    <linearGradient id="nodeGrad" x1="0%" y1="0%" x2="100%" y2="100%">
      <stop offset="0%" style="stop-color:#4FC3F7;stop-opacity:1" />
      <stop offset="100%" style="stop-color:#2196F3;stop-opacity:1" />
    </linearGradient>
    <linearGradient id="greenGrad" x1="0%" y1="0%" x2="100%" y2="100%">
      <stop offset="0%" style="stop-color:#81C784;stop-opacity:1" />
      <stop offset="100%" style="stop-color:#4CAF50;stop-opacity:1" />
    </linearGradient>
    <linearGradient id="orangeGrad" x1="0%" y1="0%" x2="100%" y2="100%">
      <stop offset="0%" style="stop-color:#FFB74D;stop-opacity:1" />
      <stop offset="100%" style="stop-color:#FF9800;stop-opacity:1" />
    </linearGradient>
    <linearGradient id="purpleGrad" x1="0%" y1="0%" x2="100%" y2="100%">
      <stop offset="0%" style="stop-color:#BA68C8;stop-opacity:1" />
      <stop offset="100%" style="stop-color:#9C27B0;stop-opacity:1" />
    </linearGradient>
    <filter id="shadow" x="-20%" y="-20%" width="140%" height="140%">
      <feDropShadow dx="0" dy="2" stdDeviation="2" flood-opacity="0.3"/>
    </filter>
    <filter id="glow" x="-50%" y="-50%" width="200%" height="200%">
      <feGaussianBlur stdDeviation="3" result="coloredBlur"/>
      <feMerge>
        <feMergeNode in="coloredBlur"/>
        <feMergeNode in="SourceGraphic"/>
      </feMerge>
    </filter>
  </defs>
  
  <!-- No background - transparent -->
  
  <!-- Top node (AGL) - Wider box for larger text -->
  <rect x="12" y="2" width="104" height="44" rx="6" fill="url(#nodeGrad)" filter="url(#shadow)"/>
  <text x="64" y="38" text-anchor="middle" fill="#FFEB3B" font-family="Arial, sans-serif" font-size="44" font-weight="bold" filter="url(#glow)">AGL</text>
  
  <!-- Single line from AGL down to split point -->
  <line x1="64" y1="46" x2="64" y2="62" stroke="#64B5F6" stroke-width="3" stroke-linecap="round"/>
  
  <!-- Three branches with arrows pointing to circles -->
  <!-- Left branch: horizontal left, then very short down to A circle -->
  <path d="M64 62 L26 62 Q20 62 20 68 L20 78" stroke="#64B5F6" stroke-width="3" fill="none" stroke-linecap="round" stroke-linejoin="round"/>
  <polygon points="20,85 15,78 25,78" fill="#64B5F6"/>
  
  <!-- Center branch: very short down to V circle -->
  <line x1="64" y1="62" x2="64" y2="78" stroke="#64B5F6" stroke-width="3" stroke-linecap="round"/>
  <polygon points="64,85 59,78 69,78" fill="#64B5F6"/>
  
  <!-- Right branch: horizontal right, then very short down to S circle (mirror of left) -->
  <path d="M64 62 L102 62 Q108 62 108 68 L108 78" stroke="#64B5F6" stroke-width="3" fill="none" stroke-linecap="round" stroke-linejoin="round"/>
  <polygon points="108,85 103,78 113,78" fill="#64B5F6"/>
  
  <!-- Bottom nodes (A V S) - Larger circles with bigger text -->
  <!-- Green node - A -->
  <circle cx="20" cy="105" r="20" fill="url(#greenGrad)" filter="url(#shadow)"/>
  <text x="20" y="116" text-anchor="middle" fill="#fff" font-family="Arial, sans-serif" font-size="30" font-weight="bold">A</text>
  
  <!-- Orange node - V -->
  <circle cx="64" cy="105" r="20" fill="url(#orangeGrad)" filter="url(#shadow)"/>
  <text x="64" y="116" text-anchor="middle" fill="#fff" font-family="Arial, sans-serif" font-size="30" font-weight="bold">V</text>
  
  <!-- Purple node - S -->
  <circle cx="108" cy="105" r="20" fill="url(#purpleGrad)" filter="url(#shadow)"/>
  <text x="108" y="116" text-anchor="middle" fill="#fff" font-family="Arial, sans-serif" font-size="30" font-weight="bold">S</text>
</svg>
